<svg width="512" height="468" viewBox="0 0 512 468" fill="none" xmlns="http://www.w3.org/2000/svg">
<path d="M375.062 130.738C375.807 130.736 376.552 130.733 377.319 130.73C391.167 130.725 404.447 132.09 418 135.051C418.763 135.216 419.527 135.382 420.313 135.552C428.933 137.489 437 140.329 445 144.051C445.604 144.329 446.208 144.607 446.831 144.894C461.905 151.901 475.109 160.729 487.532 171.754C488.912 172.973 490.313 174.167 491.715 175.359C507 189.551 506 188.551 511.5 194.551C510.747 195.122 507.494 198.193 506.719 198.781C500.464 203.548 494.286 208.397 488.188 213.363C487.195 214.169 487.195 214.169 486.183 214.992C482.621 217.891 479.083 220.815 475.566 223.77C474.844 224.371 474.121 224.973 473.376 225.593C471.986 226.75 470.603 227.915 469.227 229.089C468.601 229.609 467.974 230.129 467.328 230.664C466.781 231.126 466.233 231.588 465.669 232.064C464.295 233.223 464 233.551 462 235.051C460.5 233.551 458.483 231.848 457.039 230.156C456.493 229.536 455.947 228.915 455.384 228.276C454.804 227.604 454.223 226.931 453.625 226.238C435.312 205.961 411.582 192.605 383.97 190.928C357.245 189.845 332.138 198.155 312 216.051C296.879 230.178 286.423 249.166 281 269.051C280.551 270.675 280.551 270.675 280.094 272.332C273.26 301.944 277.983 334.856 293.875 360.809C297.219 365.911 300.911 370.529 305 375.051C305.833 375.978 306.665 376.904 307.523 377.859C321.906 393.064 339.714 400.93 360 405.051C360.789 405.226 361.579 405.401 362.392 405.581C378.557 408.492 395.585 406.222 411 401.051C412.124 400.678 413.248 400.306 414.406 399.922C433.955 392.54 450.044 377.836 462 361.051C465.946 362.709 468.934 365.398 472.125 368.176C473.297 369.182 474.47 370.187 475.645 371.191C476.219 371.683 476.793 372.175 477.385 372.682C480.266 375.124 483.226 377.462 486.188 379.805C488.473 381.63 490.74 383.472 493 385.328C493.711 385.91 494.421 386.492 495.153 387.092C496.564 388.25 497.973 389.409 499.38 390.572C502.189 392.871 504.818 394.947 507.98 396.75C508.647 397.179 509.313 397.609 510 398.051C510 401.051 510 401.051 508.203 402.973C507.476 403.658 506.749 404.344 506 405.051C504.901 406.455 503.818 407.873 502.75 409.301C478.935 439.146 444.598 458.664 407 465.051C405.943 465.254 404.886 465.458 403.797 465.668C363.14 472.444 316.629 463.126 282.812 439.238C262.543 424.408 244.877 406.379 233 384.051C232.594 383.287 233 384 232 382.5C231 381 231.207 380.904 231 382.051C230.89 382.657 230.781 383.263 230.668 383.887C230.151 386.618 229.585 389.334 229 392.051C228.76 393.203 228.76 393.203 228.516 394.379C222.741 417.323 203.626 438.036 183.934 449.925C175.342 454.926 166.426 458.433 156.938 461.363C155.77 461.727 155.77 461.727 154.579 462.099C141.139 466.023 127.709 466.424 113.816 466.421C110.9 466.426 107.986 466.462 105.07 466.5C78.4109 466.658 52.2402 460.776 32.3542 442.013C13.5791 423.419 0.898572 397.708 0 371.051C0 364.451 0 357.851 0 351.051C18.81 351.051 37.62 351.051 57 351.051C57.33 356.661 57.16 362.271 57.5 368.051C57.5 381.551 65.0194 392.945 77 401.051C89.6613 407.118 102.771 407.773 116.02 403.246C125.719 399.356 131.569 393.769 135.75 384.176C138.922 376.414 140.304 368.848 140.252 360.499C140.255 359.687 140.257 358.876 140.261 358.04C140.268 355.348 140.262 352.656 140.255 349.964C140.258 348.024 140.262 346.083 140.266 344.142C140.274 339.976 140.277 335.81 140.274 331.644C140.272 325.055 140.286 318.466 140.303 311.877C140.35 293.144 140.374 274.412 140.381 255.679C140.385 245.323 140.403 234.968 140.436 224.612C140.456 218.063 140.459 211.515 140.448 204.966C140.445 200.892 140.459 196.819 140.478 192.745C140.483 190.858 140.482 188.971 140.473 187.084C140.462 184.505 140.475 181.928 140.494 179.349C140.485 178.605 140.476 177.861 140.467 177.095C140.562 170.577 142.78 166.538 147.078 161.723C147.795 161.088 148.512 160.454 149.25 159.801C149.956 159.156 150.663 158.512 151.391 157.848C157.44 153.682 163.247 152.603 170.4 152.663C171.198 152.657 171.996 152.668 172.818 152.663C175.431 152.65 178.043 152.652 180.656 152.663C182.487 152.661 184.317 152.666 186.147 152.663C189.973 152.658 193.799 152.649 197.625 152.663C202.514 152.68 207.403 152.681 212.292 152.663C216.068 152.652 219.845 152.655 223.621 152.663C225.423 152.665 227.225 152.67 229.027 152.663C231.552 152.655 234.075 152.646 236.6 152.663C237.702 152.654 237.702 152.672 238.826 152.663C248.172 152.776 255 151.924 255 158.5C255 164.5 255 180.5 255 184C256 179 271.5 167.5 274.375 164.988C302.089 140.388 338.803 130.861 375.062 130.738Z" fill="#6366F1"/>
<path d="M188 196C195.26 196 202.52 196 210 196C216.948 239.525 216.948 239.525 219.187 254.188C220.501 262.774 221.83 271.358 223.187 279.938C223.355 281.006 223.522 282.074 223.694 283.175C223.929 284.649 223.929 284.649 224.168 286.152C224.305 287.019 224.442 287.885 224.583 288.777C224.978 291.16 224.901 291.007 225.5 294C227 301.5 226.849 300.657 227 302L227.606 305L228 308.5L228.5 312.5L229 319L225.5 324.88L222 330L216.5 336.5L211.5 343L206.5 349L199.5 355.5L196 352.5L192 349L186 341.5C184.38 339.525 181 335 181 335C180.187 334.004 177 330.5 177 330.5C176.258 329.59 172.779 324.875 172.779 324.875C171.896 323.807 169.98 319.98 169 319C170.5 309 171.5 303.5 172.779 294.503C173.593 288.777 174.629 283.376 175.312 277.75C176.677 266.656 178.523 255.664 180.401 244.648C182.179 234.198 183.82 223.757 185.063 213.227C185.763 207.365 186.832 201.838 188 196Z" fill="#B32426"/>
<path d="M176 153C191.18 153 206.36 153 222 153C218.625 164.312 218.625 164.312 217.573 167.806C215.81 173.785 214.393 179.688 213.408 185.844C213 188 213 188 212 190C203.42 190 194.84 190 186 190C184.575 184.892 183.15 179.783 181.728 174.674C181.243 172.935 180.758 171.195 180.272 169.456C179.576 166.962 178.882 164.467 178.188 161.973C177.969 161.19 177.75 160.408 177.525 159.602C176 154.114 176 154.114 176 153Z" fill="#B32426"/>
<circle cx="201.5" cy="65.5" r="65.5" fill="#6366F1"/>
</svg>
